<?xml version="1.0" encoding="utf-8"?>
<!-- Generator: Adobe Illustrator 25.2.3, SVG Export Plug-In . SVG Version: 6.00 Build 0)  -->
<svg version="1.1" id="Layer_1" xmlns="http://www.w3.org/2000/svg" xmlns:xlink="http://www.w3.org/1999/xlink" x="0px" y="0px"
	 viewBox="0 0 440.9 165.4" style="enable-background:new 0 0 440.9 165.4;" xml:space="preserve">
<style type="text/css">
	.st0{fill:#091F40;}
	.st1{fill:#E53C2E;}
	.st2{fill:#09203F;}
	.st3{fill:#FFFFFF;}
	.st4{fill:#D91A32;}
	.st5{fill:#00428B;}
	.st6{fill:#003B75;}
	.st7{fill:#DA2128;}
	.st8{fill:#CFD2D3;}
	.st9{fill:url(#SVGID_1_);}
	.st10{fill:url(#SVGID_2_);}
	.st11{fill:url(#SVGID_3_);}
	.st12{fill:url(#SVGID_4_);}
	.st13{fill:url(#SVGID_5_);}
	.st14{fill:url(#SVGID_6_);}
	.st15{fill:url(#SVGID_7_);}
	.st16{fill:url(#SVGID_8_);}
	.st17{fill:#231F20;}
	.st18{fill:#BF0D3E;}
	.st19{fill:#041E42;}
	.st20{fill:#154270;}
	.st21{fill:#ED2125;}
	.st22{fill:#007AC2;}
	.st23{fill:#E4002B;}
	.st24{fill:#FFD659;}
	.st25{fill:url(#SVGID_9_);}
	.st26{fill:#001F5B;}
	.st27{fill:url(#SVGID_10_);}
</style>
<g>
	<g>
		<path class="st0" d="M236.5,45.5c10.6,0,17.7,8.2,17.7,20.4v22.7c0,0.3-0.3,0.6-0.6,0.6h-10.4c-0.3,0-0.6-0.3-0.6-0.6V66
			c0-4.8-2.3-9.8-8.7-9.8h-0.2c-5.1,0.3-9,4.5-9.1,9.5v22.9c0,0.3-0.3,0.6-0.6,0.6h-10.3c-0.3,0-0.6-0.3-0.6-0.6v-42
			c0-0.3,0.2-0.6,0.6-0.6l0,0h9.9c0.3,0,0.6,0.3,0.6,0.6v3.8C228.1,47,232,45.5,236.5,45.5 M394.7,81.5c-0.2,0.2-0.1,0.6,0.1,0.8
			c6.2,6.2,12.9,7,18.7,7c8.2,0,14.3-3.2,16.8-8.5c0.8-1.7,1.2-3.5,1.2-5.4c0-11-9.5-13.1-17.8-13.6c-6.7-0.4-6.7-2.8-6.7-3.5
			c0-2.8,4.5-3.1,6.5-3.1c3.8,0,6.5,0.9,8.8,2.9c0.2,0.2,0.6,0.2,0.8,0l5.9-6.9c0.2-0.3,0.2-0.6-0.1-0.8c-4.3-3.6-8.8-5.1-15.6-5.1
			c-4.1-0.1-8.1,0.9-11.5,2.9c-3.8,2.1-6.2,6.1-6.1,10.4c0,7.7,6.2,12.4,17.3,13.2c6.3,0.4,7.1,2.2,7.1,3.8c0,2.3-3.1,3.5-6.1,3.5
			h-0.3c-4.7,0-9.1-1.7-12.6-4.9c-0.2-0.2-0.6-0.2-0.8,0c0,0,0,0,0,0.1L394.7,81.5z M290.4,74.4c1.7-2.2,2.6-5,2.5-7.8
			c0-5.4-3.3-11-11.2-11c-6.6,0-10.9,4.5-10.9,11.1c0,6.7,4.4,11.2,10.9,11.2C285,78.1,288.1,76.8,290.4,74.4 M292.6,46.5
			c0-0.3,0.3-0.6,0.6-0.6h10.3c0.3,0,0.6,0.3,0.6,0.6v42c0,0.3-0.3,0.6-0.6,0.6h-10.3c-0.3,0-0.6-0.3-0.6-0.6v-3.2
			c-3.6,3.4-7.9,3.4-11.6,3.5h-0.6c-6.2,0-11.4-2-15.1-5.6c-4-3.9-6.1-9.5-6.1-16.4c0-13.1,8.4-21.7,21.4-21.7h0.2
			c4.1,0,8.4,0.4,11.8,3.2L292.6,46.5z M164.8,35.5V25.4c0-0.4-0.3-0.7-0.7-0.7l0,0h-37.4c-0.4,0-0.7,0.3-0.7,0.7v62.9
			c0,0.4,0.3,0.7,0.7,0.7l0,0h10.1c0.4,0,0.7-0.3,0.7-0.7V62.7c0-0.4,0.3-0.7,0.7-0.7H157c0.4,0,0.7-0.3,0.7-0.7l0,0V51.2
			c0-0.4-0.3-0.7-0.7-0.7l0,0h-18.8c-0.4,0-0.7-0.3-0.7-0.7V37c0-0.4,0.3-0.7,0.7-0.7h25.8C164.5,36.2,164.8,35.9,164.8,35.5
			L164.8,35.5 M384.8,75.6c-0.2-0.2-0.6-0.3-0.8-0.1c-2,1.7-4.5,2.6-7.1,2.6c-6.3,0-10.7-4.6-10.7-11c0-6.5,4.4-11,10.7-11
			c2.6,0,5.1,1,7.1,2.6c0.2,0.2,0.6,0.2,0.8,0l6.7-7.1c0.2-0.2,0.2-0.6,0-0.8c-3.9-3.9-9.1-6-14.7-5.8c-13.5,0-22.2,8.6-22.2,22.2
			s8.7,22.1,22.2,22.1c5.5,0.2,10.8-2,14.6-5.9c0.2-0.2,0.2-0.6,0-0.8L384.8,75.6z M331.1,89.1c0.3,0,0.6-0.3,0.6-0.6v-9.4
			c0-0.3-0.2-0.6-0.6-0.6l0,0c-1.1,0-4.4,0-5.1,0c-3-0.1-4.4-1.6-4.4-4.8V57.6h9.4c0.3,0,0.6-0.2,0.6-0.6l0,0V46.6
			c0-0.3-0.2-0.6-0.6-0.6l0,0h-9.3v-9.1c0-0.3-0.3-0.6-0.6-0.6h-10.4c-0.3,0-0.6,0.3-0.6,0.6v36.8c0,9.7,5.5,15.4,15.2,15.4
			L331.1,89.1L331.1,89.1z M193.3,74.4c1.7-2.2,2.6-5,2.5-7.8c0-5.4-3.3-11-11.2-11c-6.6,0-10.9,4.5-10.9,11.1
			c0,6.7,4.4,11.2,10.9,11.2C187.8,78.1,191,76.8,193.3,74.4 M195.5,46.5c0-0.3,0.3-0.6,0.6-0.6h10.3c0.3,0,0.6,0.2,0.6,0.6l0,0v42
			c0,0.3-0.3,0.6-0.6,0.6h-10.3c-0.3,0-0.6-0.2-0.6-0.6l0,0v-3.2c-3.6,3.4-7.9,3.4-11.6,3.5h-0.6c-6.2,0-11.4-2-15.1-5.6
			c-4-3.9-6.1-9.5-6.1-16.4c0-13.1,8.4-21.7,21.4-21.7h0.2c4.1,0,8.4,0.4,11.8,3.2L195.5,46.5z M337.9,89.1h10.4
			c0.3,0,0.6-0.3,0.6-0.6V46.5c0-0.3-0.2-0.6-0.6-0.6l0,0h-10.4c-0.3,0-0.6,0.2-0.6,0.6l0,0v42C337.3,88.8,337.6,89.1,337.9,89.1
			 M349.7,33.2c0-8.4-12.8-8.4-12.8,0S349.7,41.6,349.7,33.2"/>
		<path class="st1" d="M108.4,12.6L97.7,29.3c-0.2,0.3-0.6,0.5-1,0.3c-24.9-12.5-53.6,10.4-78.8,5c-0.2-0.1-0.4-0.2-0.6-0.4L0.8,9.1
			C0.5,8.6,0.6,7.9,1.1,7.6c0.2-0.2,0.5-0.2,0.8-0.2c6.4,1.5,12.7,2.5,19.2,3.2c38.5,2.1,59.2-21,87.1,0.9
			C108.6,11.7,108.6,12.2,108.4,12.6z M77,60.6c0.2,0.1,0.4,0,0.6-0.2l13.1-20.3c0.1-0.2,0.1-0.5-0.2-0.6h-0.1
			c-18.9-6.5-36.5,6-63.4,6.7c-0.6,0-1.1,0.6-1.1,1.2c0,0.2,0.1,0.4,0.2,0.5l29.1,44.8c0.2,0.3,0.6,0.5,1,0.3
			c0.2-0.1,0.4-0.4,0.4-0.7l-6.3-28.4c0-0.2,0.1-0.5,0.3-0.6C52.7,62.5,69.2,56.9,77,60.6z"/>
		<path class="st0" d="M438.9,41.4c0,2.1-1.7,3.8-3.8,3.8s-3.8-1.7-3.8-3.8l0,0c0-2.1,1.7-3.8,3.8-3.8S438.9,39.3,438.9,41.4
			L438.9,41.4z M435.2,44.6c1.7,0.1,3-1.2,3.1-2.9c0-0.1,0-0.2,0-0.3c0-1.7-1.4-3.1-3.1-3.1s-3.1,1.4-3.1,3.1l0,0
			c-0.1,1.7,1.1,3.1,2.8,3.2C435,44.6,435.1,44.6,435.2,44.6L435.2,44.6z M435.8,41.8c0.7-0.1,1.1-0.8,1-1.4c-0.1-0.6-0.7-1.1-1.3-1
			h-1.8v3.9h0.6v-1.4h0.8l1.2,1.4h0.6v-0.1L435.8,41.8z M435.6,39.9c0.4,0,0.7,0.3,0.7,0.7s-0.3,0.7-0.7,0.7l0,0h-1.2v-1.4H435.6z"
			/>
	</g>
	<g>
		<g>
			<path class="st2" d="M12.2,124.7c1,0,1.9,0.2,2.8,0.6c0.8,0.3,1.5,0.9,2,1.5c0.5,0.6,0.9,1.3,1.2,2.1c0.3,0.8,0.4,1.6,0.4,2.5
				c0,0.8-0.1,1.7-0.4,2.5c-0.3,0.8-0.7,1.5-1.2,2.1c-0.6,0.6-1.3,1.1-2,1.5c-0.9,0.4-1.9,0.6-2.9,0.5c-1,0-2-0.2-2.9-0.6
				c-0.8-0.3-1.5-0.8-2-1.5c-0.5-0.6-1-1.3-1.2-2.1c-0.3-0.8-0.4-1.6-0.4-2.5s0.1-1.9,0.5-2.7c0.3-0.8,0.7-1.5,1.3-2.1
				c0.6-0.6,1.3-1.1,2.1-1.4C10.3,124.8,11.3,124.6,12.2,124.7z M7.6,131.4c0,0.6,0.1,1.1,0.3,1.7c0.2,0.5,0.5,1.1,0.8,1.5
				c0.4,0.5,0.9,0.8,1.4,1.1c0.6,0.3,1.3,0.4,2,0.4c0.7,0,1.4-0.1,2-0.4c0.5-0.2,1-0.6,1.4-1c0.4-0.4,0.6-0.9,0.8-1.5
				c0.2-0.6,0.3-1.2,0.3-1.8c0-0.6-0.1-1.2-0.3-1.7c-0.2-0.6-0.4-1.1-0.8-1.5c-0.4-0.5-0.9-0.8-1.4-1.1c-0.6-0.3-1.3-0.5-2-0.4
				c-0.7,0-1.3,0.1-2,0.4c-0.5,0.2-1,0.6-1.4,1c-0.4,0.4-0.7,1-0.9,1.5C7.7,130.1,7.7,130.7,7.6,131.4L7.6,131.4z"/>
			<path class="st2" d="M21.4,137.5v-12.6h8.9v2h-7v3.9H30v1.9h-6.5v5L21.4,137.5z"/>
			<path class="st2" d="M33.2,137.5v-12.6h8.9v2h-7v3.9h6.6v1.9h-6.6v5L33.2,137.5z"/>
			<path class="st2" d="M45,137.5v-12.6h2v12.6H45z"/>
			<path class="st2" d="M61.2,136c-0.6,0.6-1.4,1.1-2.2,1.4c-0.8,0.3-1.7,0.5-2.6,0.5c-1,0-2-0.2-3-0.5c-0.8-0.3-1.5-0.8-2.1-1.5
				c-0.5-0.6-1-1.3-1.2-2.1c-0.5-1.6-0.5-3.3,0-4.9c0.3-0.8,0.7-1.5,1.2-2.1c0.6-0.6,1.3-1.2,2.1-1.5c0.9-0.4,2-0.6,3-0.6
				c0.9,0,1.7,0.2,2.5,0.5c0.8,0.3,1.5,0.8,2.2,1.5l-1.4,1.3c-0.4-0.4-1-0.8-1.5-1c-0.6-0.2-1.1-0.3-1.7-0.3c-0.7,0-1.4,0.1-2.1,0.4
				c-0.6,0.3-1.1,0.6-1.5,1.1c-0.4,0.4-0.7,1-0.8,1.5c-0.2,0.6-0.3,1.1-0.3,1.7c0,0.6,0.1,1.2,0.3,1.7s0.5,1,0.8,1.5
				c0.4,0.4,0.9,0.8,1.5,1c0.7,0.3,1.4,0.4,2.1,0.4c0.6,0,1.2-0.1,1.8-0.4c0.6-0.2,1.1-0.6,1.6-1L61.2,136z"/>
			<path class="st2" d="M63.7,137.5v-12.6h2v12.6H63.7z"/>
			<path class="st2" d="M78.1,135h-6.9l-1.2,2.7h-2.2l5.7-12.6h2.2l5.7,12.6h-2.1L78.1,135z M74.7,127.1l-2.7,6h5.4L74.7,127.1z"/>
			<path class="st2" d="M85.7,124.9v10.7h6.7v1.9h-8.6v-12.6H85.7z"/>
		</g>
		<g>
			<path class="st2" d="M8.5,152.4v3.9h-2v-12.6h5.9c0.9,0,1.8,0.2,2.5,0.7c0.6,0.4,1.2,1,1.5,1.6c0.7,1.3,0.7,2.9,0,4.3
				c-0.4,0.7-0.9,1.2-1.5,1.6c-0.8,0.5-1.6,0.7-2.5,0.7L8.5,152.4z M8.5,150.5h3.9c0.5,0,1-0.1,1.4-0.4c0.4-0.2,0.6-0.5,0.8-0.9
				c0.4-0.8,0.4-1.7,0-2.5c-0.4-0.8-1.3-1.4-2.2-1.3H8.5V150.5z"/>
			<path class="st2" d="M27.2,153.6h-6.9l-1.2,2.7h-2.1l5.7-12.6h2.2l5.7,12.6h-2.2L27.2,153.6z M23.8,145.8l-2.7,6h5.4L23.8,145.8z
				"/>
			<path class="st2" d="M43.7,156.2h-2.4l-3.9-4.4h-2.7v4.4h-2v-12.6h5.9c0.7,0,1.3,0.1,1.9,0.3c0.5,0.2,1,0.5,1.4,0.9
				c0.4,0.4,0.7,0.8,0.8,1.3c0.2,0.5,0.3,1,0.3,1.6c0,0.4-0.1,0.9-0.2,1.3c-0.2,0.9-0.8,1.7-1.7,2.1c-0.5,0.3-1,0.4-1.6,0.5l3.8,4.2
				L43.7,156.2z M34.8,145.4v4.6h3.9c0.4,0,0.7-0.1,1.1-0.2c0.3-0.1,0.5-0.3,0.8-0.5c0.2-0.2,0.3-0.5,0.4-0.7c0.2-0.6,0.2-1.2,0-1.7
				c-0.1-0.3-0.2-0.5-0.4-0.7c-0.2-0.2-0.5-0.4-0.7-0.5c-0.3-0.1-0.7-0.2-1.1-0.2L34.8,145.4L34.8,145.4z"/>
			<path class="st2" d="M49,145.4h-4.2v-1.8H55v1.8h-4.2v10.8h-2L49,145.4L49,145.4z"/>
			<path class="st2" d="M66.1,152.7v-9h2v12.6h-1.5l-7.2-8.9v8.9h-2.1v-12.6h1.6L66.1,152.7z"/>
			<path class="st2" d="M81.2,156.2h-9.3v-12.6h9.2v2h-7.3v3.4h7v1.9h-7v3.4h7.4V156.2z"/>
			<path class="st2" d="M95.1,156.2h-2.4l-3.9-4.4h-2.7v4.4h-2v-12.6H90c0.7,0,1.3,0.1,1.9,0.3c0.5,0.2,1,0.5,1.4,0.9
				s0.7,0.8,0.8,1.3c0.2,0.5,0.3,1,0.3,1.6c0,0.4-0.1,0.9-0.2,1.3c-0.1,0.4-0.3,0.8-0.6,1.2c-0.3,0.4-0.6,0.7-1.1,0.9
				c-0.5,0.3-1,0.5-1.6,0.5l3.8,4.2L95.1,156.2z M86.2,145.4v4.6h3.9c0.4,0,0.7-0.1,1.1-0.2c0.3-0.1,0.5-0.3,0.8-0.5
				c0.2-0.2,0.3-0.5,0.4-0.7c0.1-0.3,0.2-0.6,0.1-0.9c0-0.3-0.1-0.6-0.1-0.9c-0.1-0.3-0.2-0.5-0.4-0.7c-0.2-0.2-0.5-0.4-0.8-0.5
				c-0.3-0.1-0.7-0.2-1.1-0.2L86.2,145.4z"/>
		</g>
	</g>
	<g>
		<path class="st3" d="M228.6,118.7h-9.7c-2.4,0-4.3,2-4.3,4.3V156c0,2.4,2,4.3,4.3,4.3h9.7c2.4,0,4.3-1.9,4.4-4.3l0,0V123
			C232.9,120.6,231,118.7,228.6,118.7"/>
		<path class="st4" d="M226.2,126.3v0.2c0.3,0.2,0.4,0.3,0.7,0.5c0.8,0.5,1.7,1.4,1.6,4.5c0.2,0.7,0.3,2,0.5,2.4
			c0.4,0.7,0.7,1.4,0.8,2.1c0,0,0.1,1.2,0.2,1.3c0.8,0.2,0.6,0.2,0.7,0.4c0.2,0.2,0.6,0.2,0.6,0.6c0.2,0.2,0.2,0.4,0.4,0.7v-16
			c0-1.8-1.5-3.3-3.3-3.3h-3.1c0.4,0.1,0.7,0.3,1,0.7c0.4,0,0.9,1,0.2,2.3c0.3,0.2,0.1,0.6-0.2,0.9c-0.1,0.2-0.2,0.3-0.3,0.3
			c-0.3,0.6-0.7,1.2-0.9,1.2c-0.1,0.2-0.1,0.3,0,0.5C225.4,125.8,225.9,126,226.2,126.3"/>
		<path class="st4" d="M231.9,141.1c-0.6,1.5-2.3,2.2-3.8,1.6s-2.2-2.3-1.6-3.8c0.3-0.9,1.1-1.6,2.1-1.7c-0.3-0.8-1.1-2.2-1.2-2.6
			c-0.2-0.4-0.7-3.2-0.8-3.8c-0.5,0.2-0.9,0.5-1.2,0.7c0,0.1-0.9,2.3-1,2.5c0,0.2,0,0.2,0,0.4c0,0,0.4,0.1,0.7,0.8
			c0.2,0.7,1,3.5,1,3.5l-0.2,0.2c0.9,3.1,0.6,4.5,1,5.4c0.5,1.3,0.7,1.2,1.2,2.2c0.3,0.8,0.7,3.9,0.8,4c0.4,0.4,0.7,0.9,0.7,1.5
			c-0.2,0.7-0.2,1.3-0.2,2.1c0.1,0.3,0.2,1.2,0.3,1.3c0,0,0.2,0.3,0.1,0.4c0,0.1-0.1,0.1-0.1,0.2c0.2,1,1.2,2.6-0.2,3.5l0,0
			c1.6-0.2,2.8-1.6,2.8-3.3L231.9,141.1z"/>
		<path class="st5" d="M228.2,155.4c-0.5-0.5-0.2-0.7-0.2-0.9c-0.3-1.5-1.5-2.3-0.9-2.8c-0.2-0.5-0.4-1.1-0.4-1.1
			c-1.3-0.8-2.5-1.8-3.5-3c-0.3-0.3-0.8-0.7-0.9-1c-1.2-1.4-2.1-2.9-3.1-4.5l-0.8-0.1c-0.4-1.6-1.6-3-1.7-4.5c0-0.7,0.2-1.5,0.4-2.1
			c0.2-0.2,0.3-0.5,0.6-0.7v-0.4c-1.9,0.1-1.3-0.2-1.6-0.9c-0.2-0.5-0.1-0.6,0-1c0.4-1.2,0.8-2.2,1.4-3.3c0.1-0.3,0.5-1.2,0.5-1.2
			c1.4-2.8,1.9-2.6,3.5-2.8l0.1-0.1c1.6-0.1,1.4-0.2,1.6-1.8c-0.2,0.1-0.3-0.5-0.3-0.5c-0.2-0.9,0.2-0.7,0.4-0.7
			c0-1.5,0.2-2,1.2-2.4h-5.6c-1.8,0-3.3,1.5-3.3,3.3V156c0,1.8,1.5,3.3,3.3,3.3h9.7C227.5,158.8,228.2,157.6,228.2,155.4"/>
		<path class="st3" d="M220.7,157.3v-6h1.2c0.7,0,1.1,0.3,1.1,1.2v0.9c0,0.6-0.2,0.8-0.4,1c0.2,0.2,0.4,0.6,0.4,0.9v0.9
			c0,0.8-0.4,1.2-1.1,1.2L220.7,157.3z M221.5,154.6v1.8h0.3c0.2,0,0.3-0.2,0.3-0.4v-1c0-0.3-0.1-0.4-0.3-0.4H221.5z M221.5,152.1v2
			h0.3c0.2,0,0.3-0.1,0.3-0.4v-1.2c0-0.2-0.1-0.4-0.3-0.4H221.5z M224.8,156H224l-0.1,1.2h-0.8l0.7-6h1.2l0.7,6H225L224.8,156z
			 M224.5,151.9L224.5,151.9c-0.1,0.7-0.2,2-0.2,2.4l-0.1,1h0.7l-0.1-1C224.6,153.9,224.5,152.7,224.5,151.9 M218.3,157.3h-0.7v-6
			h1.1l0.9,4.9c-0.1-1.2-0.2-2.6-0.2-3.8v-1.1h0.7v5.9h-1l-0.9-4.8c0.1,1.1,0.1,2,0.1,2.9L218.3,157.3z"/>
	</g>
	<g>
		<path class="st3" d="M143.5,122.5c-2.1,1.6-4.8,2.1-7.3,1.5c-3.4-0.8-6.2-3.2-7.5-6.5c-1.3,3.3-4.1,5.7-7.5,6.5
			c-2.6,0.7-5.3,0.1-7.4-1.5h-1.1v27.2c0,1.2,0.5,2.4,1.3,3.4c1.4,1.6,3.7,2.8,6.9,3.2c2.1,0.2,4.1,1.1,5.8,2.5
			c0.7,0.7,1.4,1.6,1.9,2.6c0.6-0.9,1.2-1.8,1.9-2.6c1.6-1.4,3.6-2.3,5.9-2.5c3.2-0.5,5.6-1.6,6.9-3.2c0.8-0.9,1.2-2.1,1.3-3.4
			v-27.2H143.5z"/>
		<path class="st6" d="M143.6,123.6c-2.2,1.6-5,2.1-7.8,1.4c-3.1-0.7-5.7-2.6-7.3-5.3c-1.6,2.6-4.3,4.5-7.3,5.3
			c-2.6,0.7-5.4,0.2-7.7-1.4v26.1c0,0.9,0.3,4.6,7.4,5.7c2.4,0.2,4.5,1.2,6.4,2.7c0.5,0.5,0.9,1,1.2,1.6c0.3-0.6,0.7-1.1,1.2-1.6
			c1.7-1.6,4-2.5,6.4-2.7c7-1,7.4-4.8,7.4-5.7L143.6,123.6z"/>
		<path class="st3" d="M128.7,157c0,0,2.1-2.6,7.3-3.3c6.1-0.9,5.9-3.8,5.9-4v-13.7h-26.5v13.7c0,0.2-0.2,3,5.9,4
			C126.6,154.5,128.7,157,128.7,157z"/>
		<path class="st7" d="M122.5,146.1v-6.5l-0.8-0.5v-1.7h3.7v1.7l-0.7,0.5v13.3l-2-0.6l-2.9-8.5v5.6l0.9,0.7v1.7l-4-1v-1.5l0.9-0.3
			v-9.4l-0.9-0.5v-1.7h3.1L122.5,146.1z"/>
		<path class="st7" d="M129.3,152l0.8,0.9v1.6l-4-1.5v-1.4l0.9-0.3v-11.9l-0.9-0.4v-1.7h6.8v3.5h-1.5l-0.5-1.4h-1.7v4h1.3l0.5-0.7
			h1.1v3.5h-1.1l-0.5-0.7h-1.3L129.3,152z"/>
		<path class="st7" d="M133.7,152.7v-1.7l1-0.8v-10.6l-0.8-0.4v-1.7h4v1.7l-0.7,0.4v9.9l1.7-0.5l0.3-2.6h1.6v4.4L133.7,152.7z"/>
		<path class="st3" d="M116.1,133.3l-1.2-0.9h1.5l0.5-1.4l0.5,1.4h1.5l-1.2,0.9l0.5,1.4l-1.2-0.8l-1.2,0.8L116.1,133.3z"/>
		<path class="st3" d="M121.3,133.3l-1.2-0.9h1.5l0.5-1.4l0.5,1.4h1.5l-1.2,0.9l0.4,1.4l-1.2-0.8l-1.2,0.8L121.3,133.3z"/>
		<path class="st3" d="M116.1,128.6l-1.2-0.9h1.5l0.5-1.4l0.5,1.4h1.5l-1.2,0.9l0.4,1.4l-1.2-0.8l-1.2,0.8L116.1,128.6z"/>
		<path class="st3" d="M121.3,128.6l-1.2-0.9h1.5l0.5-1.4l0.5,1.4h1.5l-1.2,0.9l0.4,1.4l-1.2-0.8L121,130L121.3,128.6z"/>
		<path class="st3" d="M141.6,134.7l-1.2-0.8l-1.2,0.8l0.4-1.4l-1.2-0.9h1.5l0.5-1.4l0.5,1.4h1.5l-1.2,0.9L141.6,134.7z"/>
		<path class="st3" d="M136.4,134.7l-1.2-0.8l-1.2,0.8l0.4-1.4l-1.2-0.9h1.5l0.5-1.4l0.5,1.4h1.5l-1.2,0.9L136.4,134.7z"/>
		<path class="st3" d="M141.6,130l-1.2-0.8l-1.2,0.8l0.4-1.4l-1.2-0.9h1.5l0.5-1.4l0.5,1.4h1.5l-1.2,0.9L141.6,130z"/>
		<path class="st3" d="M136.4,130l-1.2-0.8l-1.2,0.8l0.4-1.4l-1.2-0.9h1.5l0.5-1.4l0.5,1.4h1.5l-1.2,0.9L136.4,130z"/>
		<path class="st3" d="M132,124.8c-0.6,0.3-1.1,0.7-1.5,1.2c0.2,0.1,0.3,0.2,0.5,0.3l-0.4,0.3c-0.5-0.4-1-0.7-1.6-0.8l0.5-0.3
			c0.2,0.1,0.5,0.2,0.5,0.2c0.6-0.4,1.2-0.8,1.8-1.1c-0.1,0-0.2,0-0.3,0c-3.9,0.1-7.4,2.9-6.7,7.8c0.1,0.7,0.2,1.3,0.5,1.9
			c0.2-1.6,0.7-3.1,1.3-4.5c-0.2-0.1-0.4-0.1-0.6-0.2c0.1-0.2,0.2-0.4,0.2-0.4c0.7,0.2,1.2,0.4,1.8,0.8l-0.2,0.4
			c-0.2-0.2-0.3-0.2-0.6-0.4c-0.7,1.4-1.3,2.8-1.6,4.4c0,0.1,0.1,0.1,0.2,0.1c4.2-0.6,6.2-2.7,6.8-5c0.4-1.5,0.2-3.1-0.2-4.5
			C132.2,124.9,132.1,124.8,132,124.8z M128.4,129.4c-0.5-0.4-1.2-0.7-1.8-0.8l0.3-0.5c0.7,0.2,1.3,0.4,1.8,0.9
			C128.5,129.1,128.4,129.3,128.4,129.4L128.4,129.4z M129,128.4c-0.5-0.4-1.2-0.7-1.8-0.9c0.1-0.2,0.2-0.2,0.3-0.4
			c0.7,0.1,1.3,0.4,1.8,0.8L129,128.4z M129.8,127.5c-0.5-0.4-1.2-0.7-1.7-0.8c0.2-0.2,0.3-0.2,0.4-0.4c0.7,0.2,1.2,0.4,1.7,0.8
			L129.8,127.5z"/>
	</g>
	<g>
		<path class="st3" d="M248.5,143.6c0-3.5,1.6-4.9,2-8.2c-0.5,3-2.4,5.3-2.4,8.2c0,1,0.2,2.1,0.4,3.1c1.2,4,4.9,6.3,8.3,7.2
			C252.1,152.7,248.6,148.5,248.5,143.6z"/>
		<path class="st3" d="M279.4,143.6c0-1.6-0.4-3.1-1.1-4.6c-0.7-1.6-1.4-3.1-1.4-4.8c0,4.3,2.1,5.5,2.1,9.4
			c-0.1,4.9-3.5,9.2-8.3,10.2C275.5,152.6,279.4,149,279.4,143.6z"/>
		<path class="st8" d="M277.6,126.5c-1.2-0.4-2.1-1.3-2.4-2.5L274,121l-0.5,1.9c1.1,4.8,4.9,5.1,4.9,5.1l1.6-0.7L277.6,126.5z"/>
		<path class="st8" d="M259.1,143.8l-2.1-3.1l-2.3,1.7c0.5,0,0.8,0.3,0.8,0.8v5.9l1.6-1.2v-4.2l1.8,2.8l1.7-1.2V138l-1.6,1.2
			L259.1,143.8z"/>
		<path class="st8" d="M265.6,137l-1.8,1.3v-2.7l-2.5,1.8c0.5,0,0.8,0.3,0.8,0.8v5.9l1.6-1.2v-2.7l1.8-1.3v2.7l1.6-1.2v-7.3
			l-1.6,1.2V137z"/>
		<path class="st8" d="M270.2,136.3v-5.4l-2.5,1.8c0.5,0,0.8,0.3,0.8,0.8v5.9l4.5-3.4c-0.1-0.7-0.1-1.2,0-1.9L270.2,136.3z"/>
		
			<linearGradient id="SVGID_1_" gradientUnits="userSpaceOnUse" x1="14248.3623" y1="-13767.5039" x2="14263.2852" y2="-13767.5039" gradientTransform="matrix(0.28 0 0 -0.28 -3691 -3717.6299)">
			<stop  offset="0.11" style="stop-color:#FFFFFF"/>
			<stop  offset="0.24" style="stop-color:#DBDDDF"/>
			<stop  offset="0.44" style="stop-color:#A6ADB0"/>
			<stop  offset="0.54" style="stop-color:#929A9E"/>
		</linearGradient>
		<path class="st9" d="M249.4,134.2c0,4.2-2.1,5-2.1,9.4c0,1.2,0.2,2.6,0.7,3.7c0.2-0.2,0.3-0.5,0.5-0.7c-0.3-1-0.4-2-0.4-3.1
			c0-2.9,1.9-5.3,2.4-8.2c0-0.4,0.1-0.8,0.1-1.2c-0.1-2.1-0.6-4.3-1.6-6.2l-1.6-0.7l1.1,2.5C249,131.1,249.4,132.7,249.4,134.2z"/>
		
			<linearGradient id="SVGID_2_" gradientUnits="userSpaceOnUse" x1="278.5329" y1="-594.9788" x2="278.5329" y2="-583.265" gradientTransform="matrix(1 0 0 -1 0 -456)">
			<stop  offset="0" style="stop-color:#FFFFFF"/>
			<stop  offset="0.35" style="stop-color:#FFFFFF"/>
			<stop  offset="0.56" style="stop-color:#929A9E"/>
			<stop  offset="1" style="stop-color:#929A9E"/>
		</linearGradient>
		<path class="st10" d="M276.9,134.2c0,1.7,0.7,3.2,1.4,4.8h0.8c-0.7-1.5-1.1-3.1-1.1-4.8c0-1.6,0.3-3.1,1-4.5l1.1-2.5l-1.6,0.7
			C277.5,129.9,277,132,276.9,134.2z"/>
		
			<linearGradient id="SVGID_3_" gradientUnits="userSpaceOnUse" x1="247.9827" y1="-608.4084" x2="263.7385" y2="-608.4084" gradientTransform="matrix(1 0 0 -1 0 -456)">
			<stop  offset="0.15" style="stop-color:#FFFFFF"/>
			<stop  offset="0.21" style="stop-color:#FAFAFA"/>
			<stop  offset="0.28" style="stop-color:#EBECED"/>
			<stop  offset="0.37" style="stop-color:#D2D5D7"/>
			<stop  offset="0.45" style="stop-color:#AFB5B8"/>
			<stop  offset="0.51" style="stop-color:#929A9E"/>
		</linearGradient>
		<path class="st11" d="M262.5,155.1c-1.3-0.5-3.1-0.7-5.6-1.3c-3.5-0.9-7.1-3.1-8.3-7.2c-0.2,0.2-0.4,0.4-0.5,0.7
			c1.4,3.8,4.6,6.6,8.6,7.6c2.4,0.6,3.5,0.7,5.3,1.2c0.2,0.2,1.9,2.1,1.9,2.1v-1.7C263.7,156.5,262.7,155.2,262.5,155.1z"/>
		
			<linearGradient id="SVGID_4_" gradientUnits="userSpaceOnUse" x1="273.0721" y1="-607.5692" x2="254.3821" y2="-580.8717" gradientTransform="matrix(1 0 0 -1 0 -456)">
			<stop  offset="0" style="stop-color:#929A9E"/>
			<stop  offset="1.000000e-02" style="stop-color:#979FA2"/>
			<stop  offset="0.12" style="stop-color:#C0C4C6"/>
			<stop  offset="0.2" style="stop-color:#D9DBDC"/>
			<stop  offset="0.25" style="stop-color:#E2E3E4"/>
			<stop  offset="0.75" style="stop-color:#E2E3E4"/>
			<stop  offset="0.8" style="stop-color:#DADCDD"/>
			<stop  offset="0.88" style="stop-color:#C4C8CA"/>
			<stop  offset="0.97" style="stop-color:#A1A8AB"/>
			<stop  offset="1" style="stop-color:#929A9E"/>
		</linearGradient>
		<path class="st12" d="M257.1,152.7c2.9,0.7,4.7,0.8,5.9,1.4c0,0,0.4,0.4,0.7,0.6c0.2-0.2,0.7-0.6,0.7-0.6c1.2-0.6,3.1-0.7,5.9-1.4
			c3.6-0.9,7.5-4.1,7.5-9.1c0-3.5-2.1-4.9-2.1-9.4c0-1.9,0.4-3.7,1.2-5.4c-1.9-0.6-3.3-2.1-3.9-3.9c-1.2,1-2.6,1.6-4.2,1.6
			c-1.9-0.1-3.7-0.8-5.1-2.1c-1.4,1.3-3.2,2.1-5.1,2.1c-1.6-0.1-3.1-0.7-4.2-1.6c-0.6,1.9-2.1,3.4-3.9,3.9c0.7,1.7,1.2,3.5,1.2,5.4
			c0,4.5-2.1,5.9-2.1,9.4C249.6,148.6,253.5,151.7,257.1,152.7z M276.5,143.6c0,4.2-3.4,7-6.5,7.8c-2.2,0.6-5,0.9-5.9,1.3
			c-0.2,0.1-0.3,0.2-0.4,0.4c-0.2-0.2-0.2-0.2-0.4-0.4c-0.8-0.5-3.6-0.7-5.9-1.3l-0.2-0.1L275,138
			C275.6,140.1,276.5,141.5,276.5,143.6L276.5,143.6z M275.3,129.5c-0.5,1.5-0.7,3.1-0.7,4.7c0,0.7,0.1,1.5,0.2,2.1l-19.1,14.4
			c-2.6-1.2-4.5-3.9-4.6-6.8l21.9-16.5C273.5,128.2,274.4,129,275.3,129.5L275.3,129.5z M253,134.2c0-1.6-0.2-3.2-0.8-4.7
			c1.2-0.7,2.1-1.6,2.7-2.6c1.2,0.7,2.4,1,3.7,1c1.8,0,3.6-0.7,5.1-1.7c1.5,1.1,3.2,1.7,5.1,1.7c0.3,0,0.7,0,1.1-0.1l-18.7,14
			C251.8,139.6,253,137.9,253,134.2L253,134.2z"/>
		
			<linearGradient id="SVGID_5_" gradientUnits="userSpaceOnUse" x1="253.4106" y1="-579.124" x2="263.7468" y2="-579.124" gradientTransform="matrix(1 0 0 -1 0 -456)">
			<stop  offset="0.25" style="stop-color:#FFFFFF"/>
			<stop  offset="0.34" style="stop-color:#FAFAFA"/>
			<stop  offset="0.45" style="stop-color:#EBECED"/>
			<stop  offset="0.57" style="stop-color:#D2D5D7"/>
			<stop  offset="0.7" style="stop-color:#AFB5B8"/>
			<stop  offset="0.79" style="stop-color:#929A9E"/>
		</linearGradient>
		<path class="st13" d="M258.7,125.4c3.1,0,5.1-2.6,5.1-2.6v-1.6l-1.6,1.6c-0.9,0.9-2.1,1.4-3.5,1.5c-1,0-2-0.4-2.7-1.2l-2.5-2.1
			l0.5,1.9C253.9,122.9,256.3,125.4,258.7,125.4z"/>
		
			<linearGradient id="SVGID_6_" gradientUnits="userSpaceOnUse" x1="263.7468" y1="-604.5726" x2="280.1625" y2="-604.5726" gradientTransform="matrix(1 0 0 -1 0 -456)">
			<stop  offset="0.2" style="stop-color:#FFFFFF"/>
			<stop  offset="0.33" style="stop-color:#FAFBFB"/>
			<stop  offset="0.47" style="stop-color:#EDEEEF"/>
			<stop  offset="0.62" style="stop-color:#D7DADB"/>
			<stop  offset="0.78" style="stop-color:#B8BDC0"/>
			<stop  offset="0.93" style="stop-color:#929A9E"/>
		</linearGradient>
		<path class="st14" d="M279.4,143.6c0,5.4-3.9,9-8.7,10.2c-2.6,0.7-4.4,0.8-5.6,1.3c-0.2,0.2-1.2,1.3-1.2,1.3v1.7
			c0,0,1.6-1.8,1.9-2.1c1.8-0.5,2.9-0.6,5.3-1.2c4.9-1.2,9.2-5.4,9.2-11.4c0-1.6-0.3-3.2-1-4.6h-0.8
			C279,140.4,279.3,142,279.4,143.6z"/>
		
			<linearGradient id="SVGID_7_" gradientUnits="userSpaceOnUse" x1="263.7468" y1="-579.2065" x2="274.0829" y2="-579.2065" gradientTransform="matrix(1 0 0 -1 0 -456)">
			<stop  offset="0.25" style="stop-color:#FFFFFF"/>
			<stop  offset="0.34" style="stop-color:#FAFAFA"/>
			<stop  offset="0.45" style="stop-color:#EBECED"/>
			<stop  offset="0.57" style="stop-color:#D2D5D7"/>
			<stop  offset="0.7" style="stop-color:#AFB5B8"/>
			<stop  offset="0.79" style="stop-color:#929A9E"/>
		</linearGradient>
		<path class="st15" d="M268.8,125.4c2.4,0,4.7-2.4,4.7-2.4l0.5-1.9l-2.5,2.1c-0.7,0.7-1.7,1.1-2.7,1.2c-1.3-0.1-2.6-0.6-3.5-1.5
			l-1.6-1.6v1.6C265,124.3,266.9,125.2,268.8,125.4z"/>
		
			<linearGradient id="SVGID_8_" gradientUnits="userSpaceOnUse" x1="247.364" y1="-580.5264" x2="253.9303" y2="-580.5264" gradientTransform="matrix(1 0 0 -1 0 -456)">
			<stop  offset="0.39" style="stop-color:#FFFFFF"/>
			<stop  offset="0.47" style="stop-color:#FAFAFA"/>
			<stop  offset="0.56" style="stop-color:#EBECED"/>
			<stop  offset="0.67" style="stop-color:#D2D5D7"/>
			<stop  offset="0.79" style="stop-color:#AFB5B8"/>
			<stop  offset="0.87" style="stop-color:#929A9E"/>
		</linearGradient>
		<path class="st16" d="M253.9,123l-0.5-1.9l-1.2,3.1c-0.3,1.2-1.2,2.1-2.4,2.5l-2.5,0.7l1.6,0.7C249,128,252.8,127.7,253.9,123z"/>
		<path class="st17" d="M251.2,141.8l18.7-14c-0.3,0.1-0.7,0.1-1.1,0.1c-1.8,0-3.6-0.7-5.1-1.7c-1.5,1.1-3.2,1.7-5.1,1.7
			c-1.3,0-2.6-0.3-3.7-1c-0.7,1.2-1.6,2.1-2.7,2.6c0.5,1.5,0.8,3.1,0.8,4.7C253,137.9,251.8,139.6,251.2,141.8z"/>
		<path class="st17" d="M257.2,151.3l0.2,0.1c2.3,0.6,5,0.9,5.9,1.3c0.2,0.1,0.3,0.2,0.4,0.4c0.2-0.2,0.2-0.2,0.4-0.4
			c0.8-0.5,3.6-0.7,5.9-1.3c3.1-0.8,6.5-3.5,6.5-7.8c0-2.1-0.9-3.5-1.6-5.6L257.2,151.3z"/>
		<path class="st17" d="M248.9,134.2c0,4-2.1,4.9-2.1,9.4c0,6.4,4.9,10.6,9.6,11.9c2.3,0.6,3.1,0.6,5.1,1.2l2.1,2.3l2.1-2.3
			c2.1-0.5,2.8-0.6,5.1-1.2c4.6-1.2,9.6-5.4,9.6-11.9c0-4.5-2.1-5.4-2.1-9.4c0-1.5,0.3-2.9,0.9-4.3l1.3-3l-3.1-0.9
			c-1-0.3-1.7-1.2-2.1-2.1l-1.4-3.7l-3.1,2.6c-0.7,0.6-1.6,1-2.5,1c-1.2-0.1-2.3-0.5-3.1-1.3l-2-1.9l-2,1.9c-0.8,0.8-2,1.3-3.1,1.3
			c-0.9-0.1-1.7-0.4-2.5-1l-3-2.6l-1.3,3.7c-0.2,1-1.1,1.8-2.1,2.1l-3.1,0.9l1.3,3C248.6,131.3,248.9,132.7,248.9,134.2z
			 M249.9,126.5c1.2-0.4,2.1-1.3,2.4-2.5l1.2-3.1l2.5,2.1c0.7,0.7,1.7,1.1,2.7,1.2c1.3,0,2.6-0.6,3.5-1.5l1.6-1.6l1.6,1.6
			c0.9,0.9,2.1,1.4,3.5,1.5c1,0,2-0.4,2.7-1.2l2.5-2.1l1.2,3.1c0.3,1.2,1.2,2.1,2.4,2.5l2.6,0.7l-1.1,2.5c-0.7,1.4-1,2.9-1,4.5
			c0,1.6,0.4,3.3,1.1,4.8s1,3.1,1,4.6c0,5.9-4.4,10.1-9.2,11.4c-2.4,0.6-3.5,0.7-5.3,1.2c-0.2,0.2-1.9,2.1-1.9,2.1s-1.6-1.8-1.9-2.1
			c-1.8-0.5-2.9-0.6-5.3-1.2c-4-1-7.2-3.8-8.6-7.6c-0.4-1.2-0.7-2.5-0.7-3.7c0-4.4,2.1-5.2,2.1-9.4c0-1.6-0.3-3.1-1-4.5l-1.1-2.5
			L249.9,126.5z"/>
		<path class="st17" d="M255.6,150.7l19.1-14.4c-0.1-0.7-0.2-1.4-0.2-2.1c0-1.6,0.2-3.2,0.7-4.7c-0.9-0.5-1.7-1.2-2.4-2.1
			l-21.9,16.5C251.2,146.8,252.9,149.4,255.6,150.7z M270.2,130.9v5.4l2.9-2.1c-0.1,0.7-0.1,1.2,0,1.9l-4.5,3.4v-5.9
			c0-0.5-0.3-0.8-0.8-0.8L270.2,130.9z M263.8,135.7v2.7l1.8-1.3v-2.7l1.6-1.2v7.3l-1.6,1.2V139l-1.8,1.3v2.7l-1.6,1.2v-5.9
			c0-0.5-0.3-0.8-0.8-0.8L263.8,135.7z M257,140.8l2.1,3.1v-4.7l1.6-1.2v7.3l-1.7,1.2l-1.8-2.8v4.2l-1.6,1.2v-5.9
			c0-0.5-0.3-0.8-0.8-0.8L257,140.8z"/>
		<path class="st17" d="M250.5,135.4c-0.3,3.3-2,4.7-2,8.2c0.1,4.9,3.5,9.2,8.3,10.2c2.6,0.7,4.3,0.8,5.6,1.3
			c0.2,0.2,1.2,1.3,1.2,1.3s1.1-1.2,1.2-1.3c1.3-0.5,3.1-0.7,5.6-1.3c4.8-1.1,8.2-5.3,8.3-10.2c0-4-2.1-5.1-2.1-9.4
			c0.1-2.1,0.6-4.3,1.6-6.2c0,0-4-0.3-4.9-5.1c0,0-2.4,2.4-4.7,2.4c-3.1,0-5.1-2.6-5.1-2.6s-2.1,2.6-5.1,2.6c-2.4,0-4.7-2.4-4.7-2.4
			c-1.1,4.8-4.9,5.1-4.9,5.1c1,1.9,1.6,4,1.6,6.2C250.5,134.6,250.5,135,250.5,135.4z M250.5,128.8c1.9-0.6,3.3-2.1,3.9-3.9
			c1.2,1,2.6,1.6,4.2,1.6c1.9-0.1,3.7-0.8,5.1-2.1c1.4,1.3,3.2,2.1,5.1,2.1c1.6-0.1,3.1-0.7,4.2-1.6c0.6,1.9,2.1,3.3,3.9,3.9
			c-0.7,1.7-1.2,3.5-1.2,5.4c0,4.5,2.1,5.9,2.1,9.4c0,5-3.9,8.2-7.5,9.1c-2.9,0.7-4.7,0.8-5.9,1.4c0,0-0.4,0.4-0.7,0.6
			c-0.2-0.2-0.7-0.6-0.7-0.6c-1.2-0.6-3.1-0.7-5.9-1.4c-3.6-0.9-7.5-4.1-7.5-9.1c0-3.5,2.1-4.9,2.1-9.4
			C251.7,132.4,251.3,130.5,250.5,128.8L250.5,128.8z"/>
	</g>
	<g>
		<path class="st3" d="M160.9,127.6h37.2c2,0,3.6,1.6,3.6,3.6v16.7c0,2-1.6,3.6-3.6,3.6h-37.2c-2,0-3.6-1.6-3.6-3.6v-16.7
			C157.3,129.1,158.9,127.6,160.9,127.6z"/>
		<path class="st18" d="M199.9,129.5c-0.4-0.5-1.1-0.7-1.7-0.7h-10.4l6,10.1l0.6,0.1l0.3,0.5v0.4l0.4,0.1l0.3,0.5v0.4l0.4,0.1
			l0.4,0.4v0.9c0.5,0.4,1,0.8,1.6,1.1c0.5,0.2,0.6,1.1,0.9,1.5c0.4,0.7,1,0.9,0.8,1.2c-0.2,1-1.2,2.6-2.2,2.7h-3.7v1.6h4.6
			c1.3,0,2.4-1.1,2.4-2.4l0,0l0,0v-16.7C200.5,130.5,200.3,129.9,199.9,129.5"/>
		<path class="st19" d="M184.2,128.7h-23.3c-1.3,0-2.4,1.1-2.4,2.4v16.7c0,1.3,1.1,2.4,2.4,2.4H176l-0.9-1.6h-1.8
			c0-4.5,1.6-6.9,3.3-7.4c0.2-0.1,0.2-1.2-0.2-1.6c-0.3,0-0.7,0-1.1,0c-0.2-0.1-0.1-0.3-0.1-0.3l0.8-1.8L176,137h-3.1l2.6-1.8
			c0.2-4.8,5-5.1,7.9-3.1c1.7,1.2,1.9,3.5,1.7,5c0,0.1-0.5,0-0.5,0s-0.3,1.7,0.5,1.7h3.4c1,0,1.9,0.3,2.7,0.9l0.3-1.2L184.2,128.7z
			 M163.5,146.8c-0.9,0-1.6-0.7-1.6-1.6s0.7-1.6,1.6-1.6s1.6,0.7,1.6,1.6l0,0C165.1,146.1,164.4,146.8,163.5,146.8"/>
	</g>
	<g>
		<g>
			<g>
				<g>
					<g>
						<g>
							<g>
								<path class="st20" d="M295.8,153.7c0,2.6,2.1,4.7,4.7,4.7h18.1c2.6,0,4.7-2.1,4.7-4.7v-28.5c0-2.6-2.1-4.6-4.6-4.7l0,0
									h-18.3c-2.6-0.1-4.7,2-4.7,4.5L295.8,153.7"/>
							</g>
						</g>
					</g>
				</g>
			</g>
		</g>
		<g>
			<g>
				<path class="st3" d="M300.6,121.6c-2,0-3.6,1.6-3.6,3.6v28.5c0,2,1.6,3.6,3.6,3.6h18.1c2,0,3.6-1.6,3.6-3.6v-28.5
					c0-2-1.6-3.6-3.6-3.6L300.6,121.6"/>
				<path class="st20" d="M300.5,122.1c-1.7,0-3.1,1.4-3.1,3.1v28.5c0,1.7,1.4,3.1,3.1,3.1h18.1c1.7,0,3.1-1.4,3.1-3.1l0,0l0,0
					v-28.5c0-1.7-1.4-3.1-3.1-3.1l0,0H300.5"/>
				<path class="st3" d="M301.4,127h0.5c0.2,0,0.5,0.2,0.5,0.4l0,0l0,0c0,0.2-0.2,0.5-0.6,0.5h-0.4V127 M300.4,129.1
					c0,0.1-0.1,0.2-0.2,0.2l0,0h-0.3v0.4h2v-0.4h-0.3c-0.1,0-0.2-0.1-0.2-0.2l0,0v-0.8h0.6c0.9,0,1.4-0.2,1.4-0.8
					c0-0.7-0.5-0.8-1.3-0.8H300v0.4h0.3c0.1,0,0.2,0.1,0.2,0.2l0,0L300.4,129.1L300.4,129.1z"/>
				<path class="st3" d="M307.3,128.4H307c-0.1,0-0.2,0.1-0.2,0.2l0,0v1.1h-0.4l-0.1-0.2c-0.3,0.2-0.7,0.3-1,0.2
					c-0.9,0.1-1.6-0.5-1.7-1.4l0,0c0-0.1,0-0.1,0-0.2c-0.1-0.9,0.6-1.6,1.5-1.6l0,0c0.1,0,0.2,0,0.2,0c0.3,0,0.7,0.1,0.9,0.3
					l0.1-0.2h0.4v1.1h-0.4c0-0.4-0.3-0.7-0.8-0.7c-0.5,0-0.8,0.4-0.8,1.2c0,0.7,0.2,1.2,0.8,1.2c0.2,0,0.4-0.1,0.4-0.2v-0.4
					c0-0.1-0.1-0.2-0.2-0.2l0,0h-0.3V128h1.8L307.3,128.4"/>
				<path class="st3" d="M311.1,129.3c-0.3-0.1-0.3-0.2-0.5-0.4l-1-2.2h-0.7l-1,2.1c-0.2,0.3-0.2,0.6-0.7,0.6v0.3h1.5v-0.3l0,0
					c-0.1,0-0.4,0-0.4-0.2c0-0.1,0-0.2,0.1-0.2l0.1-0.2h1.2l0.1,0.2c0,0.1,0.1,0.2,0.1,0.2c0,0.2-0.3,0.2-0.4,0.2v0.3h1.7V129.3
					L311.1,129.3 M308.6,128.4l0.4-1l0.4,1H308.6z"/>
				<path class="st3" d="M319.6,130.9c0.3-0.5,0.5-1.1,0.5-1.6c-0.3-0.6-0.8-0.9-1.5-1.2c-0.2-0.1-0.3-0.1-0.5,0.1l0,0l-7.9-4.9
					c-0.6-0.3-1.4,0.7-1.6,1.1c-0.1,0.2,0.2,0.3,0.3,0.4c0.7,0.5,1.1-0.7,1.3-1.2l7.7,4.9c0,0.2,0,0.2,0.1,0.4
					c0,0.7,0.5,1.2,0.2,2.1c-0.1,1.3-1.5,1.6-2.2,2.3c-0.7,0.8-2.1,0.6-2.6,1.2l0,0c-0.5-1.3-0.8-1.4-0.9-1.9
					c-0.6-0.2-1.3-0.2-1.9,0c-0.6,0.3-0.8,1-0.7,1.6c0,0.6,0.9,1.3,1.3,1.6c-0.2,0.3-0.4,0.7-0.4,1.2c0.1,0.8,0.3,1.6,0.8,2.1
					c0.6,0.8,1.1,1.7,1.6,2.6c0,0.1,0.1,0.2,0,0.2c-0.1,0.1-0.7,1.3,0.5,3.1c0.5,1,0.8,2.1,1.2,3.1c0.2,0.3-0.4,0.1-0.4,0.8
					c-1.7,1.2-3.3,2.3-4.9,3.6c-0.3,0.1-0.7,0.1-0.9,0.5c-0.1,0.2-0.2,0.3-0.2,0.5c-0.4,0.5-0.7,1.2-0.8,1.8c-0.1,0.3,0,1.1,0.4,1.2
					c0.1,0.1,0.2,0.1,0.3,0c0.2-0.2,0.2-0.5,0.3-0.7c0.2-0.7,0.7-0.9,1.6-1.8c0.5,0.2,0.7,0.4,1.2,0.6c1.3-1.2,2.7-2.4,4-3.7
					c-0.2,2-0.4,4-0.4,4.6c-0.1,0.4-0.1,0.8,0.2,1.2c0,0,2.2,0.2,2.6,0.1c0.2,0,0.2-0.2,0.2-0.2s0.2-0.3-0.3-0.7
					c-0.2-0.2-0.5-0.6-0.8-0.8c0.2-0.1,0.6-0.1,0.9-0.2c-0.1-1.1-0.2-3.3-0.2-6.3c-0.3-3.5-1-7-1.9-10.4c1.1-1.2,1.1-2,2.1-3.2
					C318.5,133.8,319.1,132.4,319.6,130.9 M315,136.6c0-0.1-0.2-0.5-0.2-0.8l1.4-0.9c0,0.1,0,0.1,0,0.2
					C315.8,135.5,315.4,136.1,315,136.6L315,136.6z"/>
				<path class="st3" d="M306.4,153.1c-0.1,0-0.2-0.1-0.2-0.2v-0.2c0-0.3-0.1-0.7-0.2-1c0-0.1-0.1-0.2-0.2-0.2h0.1
					c0.3-0.3,0.6-0.7,0.5-1.2c0-0.3-0.1-0.7-0.2-1l0,0c-0.2-0.3-0.6-0.7-1-0.7c0.6-0.3,0.9-1.1,0.9-1.7v-2.6h0.7v-1.7h-1.6
					c1-0.6,1.6-1.6,1.5-2.8c0.1-1.1-0.5-2.1-1.4-2.7h0.7v-1.6h-1.2v-3c0.2,0,0.5,0.2,0.5,0.7v0.5h1.7v-3H300v3h1.6v-0.5
					c0-0.4,0.2-0.7,0.5-0.7v2.9H301v1.6h0.5c-1,0.6-1.5,1.6-1.4,2.8c-0.1,1.2,0.5,2.2,1.5,2.8h-1.5v1.7h0.7v2.8
					c0,0.6,0.3,1.2,0.8,1.5H300v1.7h0.7c0.1,0,0.1,0.1,0.1,0.1l0,0v2.7c0,0.2-0.1,0.1-0.1,0.2H300v1.6h4.1v-0.5
					c0.3,0.3,0.8,0.6,1.4,0.6h1.4v-1.7L306.4,153.1 M303.2,144.2h1c0,0,0.1,0,0.1,0.1v2.6c0,0.2-0.2,0.3-0.6,0.3
					c-0.4,0-0.6-0.2-0.6-0.3L303.2,144.2C303.1,144.2,303.2,144.2,303.2,144.2L303.2,144.2z M304,139.7c0,1-0.2,1.6-0.7,1.6
					c-0.2,0-0.7,0-0.7-1.6c0-1.6,0.5-1.6,0.7-1.6C303.5,138.1,304,138.1,304,139.7z M303.2,153.1C303.1,153.1,303.1,153,303.2,153.1
					l-0.1-0.7h0.4c0.2,0,0.2,0,0.2,0.2v0.6L303.2,153.1L303.2,153.1z M303.1,150.8V150h0.7c0.2,0,0.3,0.2,0.3,0.3l0,0l0,0
					c0,0.2-0.2,0.3-0.3,0.3L303.1,150.8z"/>
				<path class="st21" d="M306.2,131.1h-5.8v2.1h0.8v-0.1c0-0.8,0.5-1.2,0.9-1.2c0.2,0,0.4,0.1,0.4,0.2v3.3c0,0.2-0.1,0.3-0.2,0.3
					h-0.9v0.7h4v-0.7h-1.1c-0.2,0-0.2-0.2-0.2-0.3v-3.2c0-0.1,0.2-0.2,0.4-0.2c0.4,0,0.9,0.3,0.9,1.2v0.1h0.8L306.2,131.1
					L306.2,131.1"/>
				<path class="st21" d="M306.3,142.9h-2.4v0.8h0.5c0.1,0,0.2,0,0.3,0.1c0.1,0.1,0.1,0.2,0.1,0.2v3c0,0.2-0.2,0.7-1,0.7
					c-0.7,0-1.1-0.2-1.1-0.7v-2.8c0-0.3,0.2-0.3,0.3-0.3h0.5v-0.8h-3.1v0.8h0.3c0.1,0,0.2,0,0.3,0.1c0.1,0.1,0.1,0.2,0.1,0.2v2.9
					c0,0.7,0.7,1.5,2.4,1.5s2.1-0.9,2.1-1.6v-2.7c0-0.3,0.2-0.3,0.3-0.3h0.4L306.3,142.9"/>
				<path class="st21" d="M303.2,136.9c-1.4-0.2-2.7,0.9-2.9,2.3l0,0c0,0.2,0,0.3,0,0.4c0,1.6,1.3,2.9,2.9,2.9s2.9-1.3,2.9-2.9
					c0.1-1.4-1-2.7-2.4-2.8C303.6,136.9,303.4,136.9,303.2,136.9 M303.3,141.7c-0.5,0-1.2-0.2-1.2-2c0-1.4,0.4-2,1.2-2
					c0.7,0,1.2,0.6,1.2,2C304.4,141,304.1,141.7,303.3,141.7L303.3,141.7z"/>
				<path class="st21" d="M306.4,153.6c-0.3,0.1-0.6-0.2-0.7-0.5c0-0.1,0-0.1,0-0.2v-0.2c0-0.2,0-0.6-0.2-0.8
					c-0.2-0.2-0.3-0.4-0.6-0.5c0.2-0.1,0.4-0.2,0.6-0.3c0.2-0.2,0.4-0.5,0.4-0.8c0-0.2-0.1-0.6-0.2-0.8c-0.3-0.5-0.8-0.7-1.4-0.6h-4
					v0.8h0.5c0.2,0,0.2,0.1,0.2,0.2v3.4c0,0.2-0.1,0.2-0.2,0.2h-0.5v0.8h3.3v-0.8h-0.8c-0.2,0-0.2-0.2-0.2-0.3v-1.3h1
					c0.2,0,0.5,0.2,0.5,0.5l0,0c0,0,0,0,0,0.1v0.3c0,0.3,0,0.6,0.1,0.9c0.2,0.5,0.7,0.7,1.2,0.7h1L306.4,153.6L306.4,153.6
					 M302.6,149.5h1.2c0.3-0.1,0.6,0.2,0.7,0.4c0.1,0.2,0.1,0.5,0,0.7c-0.1,0.3-0.4,0.5-0.7,0.5h-1.2L302.6,149.5L302.6,149.5z"/>
			</g>
		</g>
	</g>
	<g>
		<polygon class="st22" points="419.3,126.3 412,152.7 422.1,152.7 429.5,126.3 		"/>
		<polygon class="st23" points="404.7,126.3 397.4,152.7 402.2,152.7 409.6,126.3 		"/>
		<polygon class="st23" points="411.6,126.3 404.2,152.7 409.2,152.7 416.5,126.3 		"/>
		<polygon class="st24" points="393.9,126.3 386.6,152.7 389.6,152.7 396.9,126.3 		"/>
		<polygon class="st24" points="398.9,126.3 391.5,152.7 394.6,152.7 401.9,126.3 		"/>
	</g>
	<g>
		<path class="st3" d="M373.5,123.9v-2.2h-36.3v2.2c0,0,0,12.6,0,12.7c0,2.7,0.4,5.4,1.3,7.9c0.7,2.1,1.7,4.1,3,6L337,155l3.2,3.2
			l4.2-4.2c1,1,2.1,1.9,3.3,2.8c2.2,1.5,4.5,2.6,7,3.4l0.6,0.2l0.6-0.2c2.5-0.7,4.9-1.9,7-3.4c2.1-1.5,4-3.3,5.5-5.3
			c1.6-2.1,2.8-4.4,3.7-6.9c0.9-2.5,1.3-5.2,1.3-7.9C373.5,136.4,373.5,123.9,373.5,123.9z"/>
		<linearGradient id="SVGID_9_" gradientUnits="userSpaceOnUse" x1="339.4411" y1="137.2289" x2="371.2996" y2="137.2289">
			<stop  offset="0" style="stop-color:#E2231A"/>
			<stop  offset="0.1602" style="stop-color:#DB231B"/>
			<stop  offset="0.3944" style="stop-color:#C7231F"/>
			<stop  offset="0.674" style="stop-color:#A72325"/>
			<stop  offset="0.9864" style="stop-color:#7B232E"/>
			<stop  offset="1" style="stop-color:#79232E"/>
		</linearGradient>
		<path class="st25" d="M371.3,123.8h-31.9c0,0,0,12.6,0,12.7c0,5.4,1.9,10.3,5.1,14.1L371.3,123.8
			C371.3,123.8,371.3,123.8,371.3,123.8z"/>
		<path class="st3" d="M355.4,157.9c9.2-2.7,15.9-11.3,15.9-21.4c0-0.1,0-12,0-12.7l-26.8,26.8C347.3,154,351.1,156.6,355.4,157.9z"
			/>
		<g>
			<path class="st26" d="M344.6,147l-0.2,0.2l0.5,0.5l-0.1,0.1l-0.5-0.5l-0.2,0.2l-0.1-0.1l0.5-0.5L344.6,147z M345.5,146.9
				l-0.3-0.6l0.2-0.2l0.6,0.6l-0.1,0.1l-0.5-0.5l0,0l0.3,0.7l-0.1,0.1l-0.7-0.3l0,0l0.5,0.5l-0.1,0.1l-0.6-0.6l0.2-0.2L345.5,146.9z
				"/>
		</g>
		<g>
			<g>
				<polygon class="st3" points="351.5,136.5 351.9,137.7 350.8,137 349.8,137.7 350.2,136.5 349.1,135.7 350.4,135.7 350.8,134.5 
					351.2,135.7 352.6,135.7 				"/>
				<polygon class="st3" points="345.4,136.5 346.4,135.7 345.1,135.7 344.7,134.5 344.3,135.7 343,135.7 344.1,136.5 343.7,137.7 
					344.7,137 345.8,137.7 				"/>
				<polygon class="st3" points="348.2,139.8 347.8,138.5 347.4,139.8 346.1,139.8 347.1,140.5 346.7,141.8 347.8,141 348.8,141.8 
					348.4,140.5 349.5,139.8 				"/>
			</g>
			<g>
				<path class="st3" d="M344.2,131.6l-1.2-2.7h0v3.7c0,0.1,0,0.1-0.1,0.1h-1.1c-0.1,0-0.1,0-0.1-0.1v-6.3c0-0.1,0-0.1,0.1-0.1h1.1
					c0.1,0,0.1,0,0.2,0.1l1.6,3.7h0l1.6-3.7c0-0.1,0.1-0.1,0.2-0.1h1.1c0.1,0,0.1,0,0.1,0.1v6.3c0,0.1,0,0.1-0.1,0.1h-1.1
					c-0.1,0-0.1,0-0.1-0.1v-3.7h0l-1.2,2.7c0,0.1-0.1,0.1-0.2,0.1h-0.7C344.3,131.7,344.2,131.7,344.2,131.6"/>
				<path class="st3" d="M348.7,132.6h4.2c0.1,0,0.1,0,0.1-0.1v-1.1c0-0.1,0-0.1-0.1-0.1h-2.9c0,0-0.1,0-0.1-0.1v-5.1
					c0-0.1,0-0.1-0.1-0.1h-1.2c-0.1,0-0.1,0-0.1,0.1L348.7,132.6C348.6,132.6,348.7,132.6,348.7,132.6"/>
				<path class="st3" d="M356.6,128.7l-0.3,0c-0.7-0.1-1-0.3-1-0.7c0-0.4,0.3-0.7,0.9-0.7c0.5,0,1,0.2,1.5,0.5c0,0,0.1,0,0.1,0
					l0.6-0.9c0-0.1,0-0.1,0-0.1c-0.5-0.4-1.4-0.7-2.2-0.7c-1.4,0-2.3,0.8-2.3,2c0,1.1,0.7,1.8,2.1,2l0.3,0c0.8,0.1,1,0.3,1,0.7
					c0,0.5-0.4,0.8-1.1,0.8c-0.7,0-1.3-0.3-1.7-0.7c0,0-0.1,0-0.1,0l-0.7,0.8c0,0.1,0,0.1,0,0.2c0.5,0.5,1.5,0.9,2.5,0.9
					c1.7,0,2.6-0.9,2.6-2C358.6,129.5,357.9,128.9,356.6,128.7"/>
			</g>
		</g>
		<radialGradient id="SVGID_10_" cx="355.371" cy="140.8609" r="17.2433" gradientUnits="userSpaceOnUse">
			<stop  offset="0" style="stop-color:#009ADD"/>
			<stop  offset="1" style="stop-color:#001F5B"/>
		</radialGradient>
		<path class="st27" d="M372,123.8l0-0.7h-33.4l0,0.7c0,0,0,12.6,0,12.7c0,2.6,0.4,5.1,1.2,7.5c0.8,2.3,1.9,4.5,3.4,6.4
			c0,0.1,0.1,0.1,0.1,0.2l-4.4,4.4l1.1,1.1l4.3-4.3c1.2,1.4,2.6,2.6,4.1,3.7c2,1.4,4.2,2.5,6.6,3.2l0.2,0.1l0.2-0.1
			c2.4-0.7,4.6-1.8,6.6-3.2c2-1.4,3.7-3.1,5.2-5c1.5-2,2.6-4.1,3.4-6.4c0.8-2.4,1.2-4.9,1.2-7.5C372,136.4,372,123.8,372,123.8z
			 M344.5,149.5c-1.4-1.8-2.5-3.9-3.2-6c-0.8-2.2-1.2-4.6-1.2-7c0-0.1,0-9.2,0-11.9h29.3L344.5,149.5
			C344.6,149.5,344.6,149.5,344.5,149.5z M369.4,143.5c-0.7,2.2-1.8,4.2-3.2,6c-1.4,1.8-3,3.4-4.9,4.7c-1.8,1.3-3.8,2.3-5.9,2.9
			c-2.1-0.7-4.1-1.6-5.9-2.9c-1.4-1-2.8-2.2-3.9-3.5l25-25c0,3.5,0,10.8,0,10.9C370.6,138.9,370.2,141.2,369.4,143.5z"/>
	</g>
</g>
</svg>
