<svg version="1.1" xmlns="http://www.w3.org/2000/svg" xmlns:xlink="http://www.w3.org/1999/xlink" x="0px" y="0px" viewBox="0 0 610 610" style="enable-background:new 0 0 610 610;" xml:space="preserve">
<style type="text/css">
	.st0{fill:#7EF248;}
</style>
<g id="Layer_1">
	<path class="st0" d="M0,0v610h610V0H0z"></path>
</g>
<g id="Layer_2">
	<path d="M235.4,275L235.4,275c-9-17.1-32.5-21.6-46.1-7.9c-8.1,8.2-61.2,117-61.2,117l9.1,5.9l8.2,5.3c14-27.2,44-85.2,56.4-109.3
		c7.3-5.6,17.1,0.3,18.7,10.1c-13.4,26-42.4,82.1-57.2,110.8l0.7,0.5l9.6,6.2l8.3,5.3c0.2-0.5,51.5-101.7,51.5-101.7l12,23.3
		l-50.8,100l-0.2,0.3v0c-2.9,5.3-9.1,7-13.9,3.9l-21.9-14.1l-26.3-17l-23.5-15.2c-4.4-2.9-6.2-8.8-4.5-14
		c0.2-0.6,54.3-106.6,57.4-113c2.3-4.4,4.5-8.8,6.8-12.4c20.4-31.5,60.7-30.8,81.2-1.5c23,38.9,43.4,87.2,67.3,128.3
		c9.9,17,15.8,22.8,24.8,29.4c22,16.2,50.1,21.5,75.6,13.5C309.4,486,274.7,341.3,235.4,275z M333.3,368.3l-0.1-0.3l-1.7-3.3
		l-31.3-61.8l0,0c-0.1-0.2-0.6-1.2-0.7-1.4v0c-5.6-10-15.4-34.3-24.7-51.2c-3.8-6.9-7.4-12.6-10.7-15.6c-3.4-3.4-7-6.5-11-9.2
		c-23.7-16.2-55.2-16.9-78.2,1.8c30.1-44.2,92.9-38.8,116.9,10l0.1-0.1c0.7,1.4,15.1,29.7,16.2,31.9v0.1c10.8,21.7,24.8,54,38.7,79
		c10.5,18.9,12.4,22.5,23.4,30.4c24,17.3,56.5,18.8,80.2-0.4C420.1,422.3,357.3,417.1,333.3,368.3L333.3,368.3z M505.1,239.3
		c-15.9,35.1-45.1,87.2-50.5,100.5c-17.7,38.4-68.9,39.5-88.1,1.4c-21.5-38-38.5-80.8-61.5-119.9c-3.9-6.7-12.9-22.5-25.4-31.6
		c-21.5-15.7-49-20.7-73.7-12.8c90-45.3,120.5,36.5,157,111.5l0.1-0.2c5.3,10.5,16.1,31.8,21.4,42.2l0,0
		c8.8,17.1,31.9,21.6,45.2,7.9c4.4-4.5,21.9-40.1,26.8-50c0,0.1,0.1,0.2,0.1,0.3c0.6-1.5,17.5-34.1,28.3-55.7L473,209.6
		c-13.2,26.1-43.9,86.7-56.5,111.5c-7.2,5.6-16.8-0.3-18.3-10.1c13.3-26.4,42.4-83.5,56.7-111.8c-8,0.7-18,1.5-24.2,2l-27.1,53.4
		l0,0h0.1l-17.1,33.9c-0.2-0.3-11.6-23-11.8-23.3c0-0.1,42.5-83.6,42.4-83.7c3.9-5.6,48.6-5.1,54.8-6.9c4-0.2,7.6,2,9.4,5.5
		c0.1,0.1,23.5,45.5,23.6,45.6C507.1,229.8,506.7,235,505.1,239.3L505.1,239.3z"></path>
</g>
</svg>