<svg width="100%" height="100%" viewBox="0 0 189 56" fill="none" xmlns="http://www.w3.org/2000/svg" preserveAspectRatio="xMidYMid meet">
<path d="M15.89 33.5999C15.02 32.7299 13.98 32.0499 12.83 31.5899C11.69 31.1299 10.46 30.8999 9.23 30.9099C6.77 30.9599 4.43 31.9599 2.71 33.6899C0.98 35.4299 0 37.7699 0 40.2099C0 42.6499 0.94 44.9999 2.66 46.7499C4.37 48.4999 6.71 49.5199 9.16 49.5799C10.4 49.5899 11.63 49.3599 12.78 48.8899C13.93 48.4199 14.97 47.7299 15.85 46.8599C16.73 45.9899 17.42 44.9499 17.89 43.8099C18.36 42.6699 18.6 41.4499 18.59 40.2099C18.61 38.9799 18.37 37.7699 17.91 36.6299C17.44 35.4899 16.75 34.4599 15.88 33.5999H15.89ZM9.23 47.1899C5.43 47.1899 2.58 44.0799 2.58 40.2099C2.58 36.3399 5.26 33.2599 9.16 33.2599C13.06 33.2599 15.84 36.4399 15.84 40.2699C15.84 44.0999 13.13 47.1799 9.23 47.1799V47.1899Z" fill="#9ACC0A"></path>
<path d="M29.29 30.9099C28.04 30.8699 26.8 31.1799 25.71 31.7999C24.62 32.4199 23.73 33.3199 23.12 34.3999V31.2899H20.46V49.1599H23.12V38.9299C23.12 35.5699 25.44 33.3299 28.54 33.3299C31.71 33.3299 33.52 35.3999 33.52 38.7099V49.1499H36.19V38.0499C36.19 33.7999 33.64 30.8999 29.29 30.8999V30.9099Z" fill="#9ACC0A"></path>
<path d="M55.05 40.3499C55.05 35.0999 51.99 30.8799 46.67 30.8799C41.69 30.8799 38.03 35.0299 38.03 40.2099C38.03 45.7799 42.08 49.5399 47.02 49.5399C48.43 49.5699 49.83 49.2899 51.11 48.7099C52.39 48.1299 53.52 47.2699 54.42 46.1899L52.75 44.7199C52.04 45.5199 51.17 46.1599 50.19 46.5999C49.21 47.0399 48.15 47.2599 47.07 47.2499V47.2299C43.9 47.2299 41.11 45.0499 40.73 41.1799H55.02C55.05 40.8999 55.06 40.6299 55.05 40.3499ZM40.73 39.2399C41.08 35.7399 43.44 33.1599 46.58 33.1599C50.17 33.1599 52.05 35.9899 52.33 39.2399H40.73Z" fill="#9ACC0A"></path>
<path d="M81.51 30.2698C78.97 30.2698 77.02 31.3098 75.38 33.2098C74.4 31.3498 72.56 30.2698 70.12 30.2698C67.44 30.2698 65.83 31.6798 64.62 33.2398V30.6098H59.33V49.1598H64.62V38.8298C64.62 36.3398 65.84 35.0598 67.83 35.0598C69.82 35.0598 70.93 36.3398 70.93 38.8298V49.1598H76.22V38.8298C76.22 36.3398 77.44 35.0598 79.43 35.0598C81.42 35.0598 82.53 36.3398 82.53 38.8298V49.1598L87.82 49.1398V37.0798C87.82 32.6198 85.46 30.2698 81.52 30.2698H81.51Z" fill="currentColor"></path>
<path d="M125.6 33.0598C124.17 31.4998 122.47 30.2898 119.58 30.2898C115.29 30.2898 111.29 33.3998 111.29 38.9298V38.9998C111.29 44.4998 115.23 47.6398 119.58 47.6398C122.4 47.6398 124.1 46.4998 125.67 44.6298V45.5298C125.67 48.8498 123.97 50.5798 120.34 50.5798C118.12 50.5898 115.94 50.0098 114.04 48.8898L112.23 52.8098C114.78 54.1198 117.61 54.7898 120.48 54.7698C127.41 54.7598 130.89 51.9498 130.89 44.9698V30.6198H125.6V33.0698V33.0598ZM125.67 38.9998C125.67 41.5198 123.66 43.2898 121.11 43.2898C118.56 43.2898 116.58 41.5598 116.58 38.9998V38.9298C116.58 36.3998 118.52 34.6398 121.11 34.6398C123.7 34.6398 125.67 36.3998 125.67 38.9298V38.9998Z" fill="currentColor"></path>
<path d="M144.19 30.2698C141.51 30.2698 139.94 31.6798 138.72 33.2398V30.6098H133.42V49.1598H138.72V38.8298C138.72 36.3398 140.01 35.0598 142.03 35.0598C144.05 35.0598 145.23 36.3398 145.23 38.8298V49.1598L150.52 49.1198V37.1298C150.52 32.8998 148.19 30.2798 144.18 30.2798L144.19 30.2698Z" fill="currentColor"></path>
<path d="M158.7 23.9098H153.13V28.5698H158.7V23.9098Z" fill="currentColor"></path>
<path d="M158.57 30.6098H153.27V49.1398H158.57V30.6098Z" fill="currentColor"></path>
<path d="M183.32 30.8398L179.25 43.4498L175.01 30.8398H166.67V30.1298C166.67 28.7498 167.37 28.1298 168.58 28.1298C169.4 28.1298 170.22 28.2798 170.98 28.5798V24.2198C169.76 23.8398 168.49 23.6698 167.22 23.6998C163.5 23.6998 161.44 25.5598 161.44 29.6398V49.1698H166.73V35.1298H171.05L176.68 49.4398C176.23 50.3698 175.74 50.6498 174.83 50.6498C174.03 50.5998 173.25 50.3498 172.57 49.9298L170.79 53.7298C172.21 54.5898 173.84 55.0298 175.5 55.0098C178.67 55.0098 180.2 53.5998 181.62 49.8298L188.8 30.8598H183.3L183.32 30.8398Z" fill="currentColor"></path>
<path d="M104.57 32.4098C103.83 31.5798 102.93 30.9298 101.91 30.4898C100.89 30.0498 99.79 29.8298 98.68 29.8498C94.24 29.8498 89.78 33.2298 89.78 39.6798V39.7498C89.78 44.5198 92.9 49.5898 98.68 49.5898C99.8 49.6098 100.92 49.3698 101.94 48.8998C102.96 48.4298 103.86 47.7398 104.57 46.8698V49.1998H109.53V30.2198H104.57V32.4098ZM104.64 39.7498C104.64 43.1798 102.12 45.2198 99.71 45.2198C96.91 45.2198 94.78 42.8698 94.78 39.6798C94.78 36.4898 96.8 34.2098 99.71 34.2098C102.62 34.2098 104.64 36.5598 104.64 39.6798V39.7498Z" fill="currentColor"></path>
<path d="M65.42 19.9098C67.21 19.9098 68.94 19.2298 70.24 18.0098L78.67 9.95977L70.21 1.90977C68.91 0.689766 67.19 0.00976562 65.39 0.00976562C63.59 0.00976562 61.88 0.689766 60.57 1.90977L54.29 7.88977L49.39 3.20977C48.28 2.16977 46.81 1.58977 45.29 1.58977C43.77 1.58977 42.3 2.16977 41.19 3.20977L34.01 9.95977L41.19 16.7198C42.3 17.7598 43.77 18.3398 45.29 18.3398C46.81 18.3398 48.28 17.7598 49.39 16.7198L54.29 12.0198L60.6 18.0198C61.9 19.2398 63.62 19.9198 65.42 19.9198V19.9098ZM47.16 14.5698C46.66 15.0398 45.99 15.3098 45.3 15.3098C44.61 15.3098 43.94 15.0498 43.44 14.5698C43.44 14.5698 39.99 11.3698 38.51 9.93976C39.99 8.51977 43.44 5.31977 43.44 5.31977C43.94 4.84977 44.61 4.57977 45.3 4.57977C45.99 4.57977 46.66 4.83977 47.16 5.31977L52.09 9.93976L47.16 14.5698ZM63.21 4.39977C63.8 3.83977 64.58 3.52977 65.4 3.52977C66.22 3.52977 67 3.83977 67.59 4.39977L73.39 9.93976L67.59 15.4898C67 16.0498 66.22 16.3598 65.4 16.3598C64.58 16.3598 63.8 16.0498 63.21 15.4898L57.4 9.93976L63.21 4.39977Z" fill="currentColor"></path>
</svg>