<svg version="1.1" xmlns="http://www.w3.org/2000/svg" xmlns:xlink="http://www.w3.org/1999/xlink" x="0px" y="0px" viewBox="0 0 35.63 19.99" xml:space="preserve" class="company-logo">
  <title>Q2</title>
  <g transform="translate(-66 -3153)">
    <g transform="translate(66 3153)">
      <path d="M17.54,16.54c3.62-4.17,3.17-10.48-1-14.1s-10.48-3.17-14.1,1s-3.17,10.48,1,14.1
    c1.49,1.3,3.34,2.12,5.3,2.37V16.4c-3.54-0.69-5.86-4.11-5.17-7.66s4.11-5.86,7.66-5.17s5.86,4.11,5.17,7.66
    c-0.51,2.62-2.55,4.67-5.17,5.17v3.59h10.01v-3.45H17.54z"></path>
      <g transform="translate(22.476 0.012)">
        <path d="M0,16.53l7.63-7.46c0.22-0.22,0.45-0.46,0.69-0.71c0.24-0.25,0.46-0.51,0.65-0.79
      C9.17,7.3,9.33,7.01,9.47,6.7c0.13-0.3,0.19-0.63,0.19-0.96c0.01-0.37-0.07-0.75-0.24-1.08C9.27,4.35,9.06,4.08,8.8,3.85
      c-0.27-0.23-0.57-0.4-0.9-0.51C7.55,3.22,7.17,3.15,6.8,3.16C6.05,3.13,5.31,3.39,4.74,3.88c-0.55,0.51-0.9,1.2-0.97,1.94
      l-3.5-0.28c0.05-0.84,0.28-1.65,0.65-2.4c0.34-0.67,0.82-1.26,1.4-1.74c0.59-0.47,1.27-0.83,2-1.05c0.8-0.25,1.63-0.37,2.47-0.36
      C7.63-0.01,8.47,0.1,9.28,0.34c0.73,0.21,1.41,0.56,2.01,1.03c0.58,0.46,1.05,1.06,1.36,1.74c0.35,0.78,0.52,1.62,0.5,2.47
      c0.03,1.13-0.26,2.24-0.85,3.21c-0.61,0.95-1.34,1.81-2.18,2.57l-5.74,5.18h8.77v3.45H0V16.53z"></path>
      </g>
    </g>
  </g>
</svg>