<?xml version="1.0" encoding="iso-8859-1"?>
<!-- Generator: Adobe Illustrator 27.0.1, SVG Export Plug-In . SVG Version: 6.00 Build 0)  -->
<svg version="1.1" xmlns="http://www.w3.org/2000/svg" xmlns:xlink="http://www.w3.org/1999/xlink" x="0px" y="0px"
	 viewBox="0 0 609.499 609.5" style="enable-background:new 0 0 609.499 609.5;" xml:space="preserve">
<g id="Icon">
	<g>
		<path d="M122.395,271.141c83.285-13.719,148.562-82.582,162.281-165.867l4.576-40.031c1.129-6.359-3.159-15.201-11.235-14.571
			c-62.953,4.914-122.307,25.652-155.373,39.189c-16.381,6.706-27.071,22.632-27.071,40.333l0,130.578
			c0,7.746,6.948,13.643,14.591,12.384L122.395,271.141z"/>
		<path d="M324.822,105.273c13.719,83.285,78.996,152.148,162.281,165.867l12.232,2.015c7.643,1.259,14.591-4.638,14.591-12.384
			l0-130.578c0-17.701-10.69-33.627-27.071-40.333c-33.066-13.536-92.42-34.275-155.373-39.189
			c-8.076-0.63-12.23,8.317-11.265,14.571L324.822,105.273z"/>
		<path d="M487.063,307.698c-113.811,22.438-166.68,98.109-166.662,241.326c0.001,7.169,7.153,12.156,13.114,8.17
			c52.333-35.284,167.547-127.444,179.406-242.727C513.368,299.951,495.236,306.776,487.063,307.698z"/>
		<path d="M122.455,307.698c113.811,22.438,166.68,98.109,166.662,241.326c-0.001,7.169-7.153,12.156-13.114,8.17
			C223.67,521.91,108.456,429.75,96.597,314.467C96.15,299.951,114.281,306.776,122.455,307.698z"/>
	</g>
</g>
<g id="Guides" style="display:none;">
	<rect x="50.791" y="273.483" style="display:inline;fill:#00AEEF;" width="507.916" height="31.266"/>
	
		<rect x="50.64" y="289.117" transform="matrix(-1.836970e-16 1 -1 -1.836970e-16 609.4993 2.941407e-04)" style="display:inline;fill:#00AEEF;" width="508.219" height="31.266"/>
	<g style="display:inline;">
		<g>
			
				<line style="fill:none;stroke:#FF00FF;stroke-width:1.5237;stroke-miterlimit:10;" x1="25.396" y1="0" x2="25.396" y2="609.499"/>
			<line style="fill:none;stroke:#FF00FF;stroke-width:1.5237;stroke-miterlimit:10;" x1="0" y1="0" x2="0" y2="609.499"/>
			
				<line style="fill:none;stroke:#FF00FF;stroke-width:1.5237;stroke-miterlimit:10;" x1="50.791" y1="0" x2="50.791" y2="609.499"/>
			
				<line style="fill:none;stroke:#FF00FF;stroke-width:1.5237;stroke-miterlimit:10;" x1="76.187" y1="0" x2="76.187" y2="609.499"/>
			
				<line style="fill:none;stroke:#FF00FF;stroke-width:1.5237;stroke-miterlimit:10;" x1="101.583" y1="0" x2="101.583" y2="609.499"/>
			
				<line style="fill:none;stroke:#FF00FF;stroke-width:1.5237;stroke-miterlimit:10;" x1="126.979" y1="0" x2="126.979" y2="609.499"/>
			
				<line style="fill:none;stroke:#FF00FF;stroke-width:1.5237;stroke-miterlimit:10;" x1="152.375" y1="0" x2="152.375" y2="609.499"/>
			
				<line style="fill:none;stroke:#FF00FF;stroke-width:1.5237;stroke-miterlimit:10;" x1="177.77" y1="0" x2="177.77" y2="609.499"/>
			
				<line style="fill:none;stroke:#FF00FF;stroke-width:1.5237;stroke-miterlimit:10;" x1="203.166" y1="0" x2="203.166" y2="609.499"/>
			
				<line style="fill:none;stroke:#FF00FF;stroke-width:1.5237;stroke-miterlimit:10;" x1="228.562" y1="0" x2="228.562" y2="609.499"/>
			
				<line style="fill:none;stroke:#FF00FF;stroke-width:1.5237;stroke-miterlimit:10;" x1="253.958" y1="0" x2="253.958" y2="609.499"/>
			
				<line style="fill:none;stroke:#FF00FF;stroke-width:1.5237;stroke-miterlimit:10;" x1="279.354" y1="0" x2="279.354" y2="609.499"/>
			
				<line style="fill:none;stroke:#FF00FF;stroke-width:1.5237;stroke-miterlimit:10;" x1="304.749" y1="0" x2="304.749" y2="609.499"/>
			
				<line style="fill:none;stroke:#FF00FF;stroke-width:1.5237;stroke-miterlimit:10;" x1="330.145" y1="0" x2="330.145" y2="609.499"/>
			
				<line style="fill:none;stroke:#FF00FF;stroke-width:1.5237;stroke-miterlimit:10;" x1="355.541" y1="0" x2="355.541" y2="609.499"/>
			
				<line style="fill:none;stroke:#FF00FF;stroke-width:1.5237;stroke-miterlimit:10;" x1="380.937" y1="0" x2="380.937" y2="609.499"/>
			
				<line style="fill:none;stroke:#FF00FF;stroke-width:1.5237;stroke-miterlimit:10;" x1="406.333" y1="0" x2="406.333" y2="609.499"/>
			
				<line style="fill:none;stroke:#FF00FF;stroke-width:1.5237;stroke-miterlimit:10;" x1="431.728" y1="0" x2="431.728" y2="609.499"/>
			
				<line style="fill:none;stroke:#FF00FF;stroke-width:1.5237;stroke-miterlimit:10;" x1="457.124" y1="0" x2="457.124" y2="609.499"/>
			
				<line style="fill:none;stroke:#FF00FF;stroke-width:1.5237;stroke-miterlimit:10;" x1="482.52" y1="0" x2="482.52" y2="609.499"/>
			
				<line style="fill:none;stroke:#FF00FF;stroke-width:1.5237;stroke-miterlimit:10;" x1="507.916" y1="0" x2="507.916" y2="609.499"/>
			
				<line style="fill:none;stroke:#FF00FF;stroke-width:1.5237;stroke-miterlimit:10;" x1="533.312" y1="0" x2="533.312" y2="609.499"/>
			
				<line style="fill:none;stroke:#FF00FF;stroke-width:1.5237;stroke-miterlimit:10;" x1="558.707" y1="0" x2="558.707" y2="609.499"/>
			
				<line style="fill:none;stroke:#FF00FF;stroke-width:1.5237;stroke-miterlimit:10;" x1="584.103" y1="0" x2="584.103" y2="609.499"/>
			
				<line style="fill:none;stroke:#FF00FF;stroke-width:1.5237;stroke-miterlimit:10;" x1="609.499" y1="0" x2="609.499" y2="609.499"/>
		</g>
		<path style="opacity:0.25;fill:#FF00FF;" d="M609.499,0H0l0,0l0,0v558.707v50.792l0,0h50.792l0,0l558.707,0v0h0.001V50.792l0,0V0z
			 M558.708,558.708l-507.916,0V50.792l507.916,0V558.708z"/>
		<rect x="0" y="0" style="fill:none;stroke:#FF00FF;stroke-width:6.095;stroke-miterlimit:10;" width="609.499" height="609.499"/>
		<g>
			
				<line style="fill:none;stroke:#FF00FF;stroke-width:1.5237;stroke-miterlimit:10;" x1="609.499" y1="25.396" x2="0" y2="25.396"/>
			<line style="fill:none;stroke:#FF00FF;stroke-width:1.5237;stroke-miterlimit:10;" x1="609.499" y1="0" x2="0" y2="0"/>
			
				<line style="fill:none;stroke:#FF00FF;stroke-width:1.5237;stroke-miterlimit:10;" x1="609.499" y1="50.792" x2="0" y2="50.792"/>
			
				<line style="fill:none;stroke:#FF00FF;stroke-width:1.5237;stroke-miterlimit:10;" x1="609.499" y1="76.188" x2="0" y2="76.187"/>
			
				<line style="fill:none;stroke:#FF00FF;stroke-width:1.5237;stroke-miterlimit:10;" x1="609.499" y1="101.583" x2="0" y2="101.583"/>
			
				<line style="fill:none;stroke:#FF00FF;stroke-width:1.5237;stroke-miterlimit:10;" x1="609.499" y1="126.979" x2="0" y2="126.979"/>
			
				<line style="fill:none;stroke:#FF00FF;stroke-width:1.5237;stroke-miterlimit:10;" x1="609.499" y1="152.375" x2="0" y2="152.375"/>
			
				<line style="fill:none;stroke:#FF00FF;stroke-width:1.5237;stroke-miterlimit:10;" x1="609.499" y1="177.771" x2="0" y2="177.771"/>
			
				<line style="fill:none;stroke:#FF00FF;stroke-width:1.5237;stroke-miterlimit:10;" x1="609.499" y1="203.167" x2="0" y2="203.166"/>
			
				<line style="fill:none;stroke:#FF00FF;stroke-width:1.5237;stroke-miterlimit:10;" x1="609.499" y1="228.562" x2="0" y2="228.562"/>
			
				<line style="fill:none;stroke:#FF00FF;stroke-width:1.5237;stroke-miterlimit:10;" x1="609.499" y1="253.958" x2="0" y2="253.958"/>
			
				<line style="fill:none;stroke:#FF00FF;stroke-width:1.5237;stroke-miterlimit:10;" x1="609.499" y1="279.354" x2="0" y2="279.354"/>
			
				<line style="fill:none;stroke:#FF00FF;stroke-width:1.5237;stroke-miterlimit:10;" x1="609.499" y1="304.75" x2="0" y2="304.75"/>
			
				<line style="fill:none;stroke:#FF00FF;stroke-width:1.5237;stroke-miterlimit:10;" x1="609.499" y1="330.146" x2="0" y2="330.145"/>
			
				<line style="fill:none;stroke:#FF00FF;stroke-width:1.5237;stroke-miterlimit:10;" x1="609.499" y1="355.542" x2="0" y2="355.541"/>
			
				<line style="fill:none;stroke:#FF00FF;stroke-width:1.5237;stroke-miterlimit:10;" x1="609.499" y1="380.937" x2="0" y2="380.937"/>
			
				<line style="fill:none;stroke:#FF00FF;stroke-width:1.5237;stroke-miterlimit:10;" x1="609.499" y1="406.333" x2="0" y2="406.333"/>
			
				<line style="fill:none;stroke:#FF00FF;stroke-width:1.5237;stroke-miterlimit:10;" x1="609.499" y1="431.729" x2="0" y2="431.729"/>
			
				<line style="fill:none;stroke:#FF00FF;stroke-width:1.5237;stroke-miterlimit:10;" x1="609.499" y1="457.125" x2="0" y2="457.125"/>
			
				<line style="fill:none;stroke:#FF00FF;stroke-width:1.5237;stroke-miterlimit:10;" x1="609.499" y1="482.521" x2="0" y2="482.52"/>
			
				<line style="fill:none;stroke:#FF00FF;stroke-width:1.5237;stroke-miterlimit:10;" x1="609.499" y1="507.916" x2="0" y2="507.916"/>
			
				<line style="fill:none;stroke:#FF00FF;stroke-width:1.5237;stroke-miterlimit:10;" x1="609.499" y1="533.312" x2="0" y2="533.312"/>
			
				<line style="fill:none;stroke:#FF00FF;stroke-width:1.5237;stroke-miterlimit:10;" x1="609.499" y1="558.708" x2="0" y2="558.708"/>
			
				<line style="fill:none;stroke:#FF00FF;stroke-width:1.5237;stroke-miterlimit:10;" x1="609.499" y1="584.104" x2="0" y2="584.104"/>
			
				<line style="fill:none;stroke:#FF00FF;stroke-width:1.5237;stroke-miterlimit:10;" x1="609.499" y1="609.5" x2="0" y2="609.499"/>
		</g>
	</g>
	<circle style="display:inline;fill:#F506FF;" cx="279.956" cy="549.396" r="9.161"/>
	<circle style="display:inline;fill:#F506FF;" cx="105.75" cy="262.968" r="9.161"/>
	<circle style="display:inline;fill:#F506FF;" cx="105.75" cy="314.454" r="9.161"/>
	<circle style="display:inline;fill:#F506FF;" cx="279.448" cy="59.801" r="9.161"/>
</g>
</svg>
